<svg width="1000" height="300" viewBox="0 0 1000 300" fill="none" xmlns="http://www.w3.org/2000/svg">
<path d="M469.1 138.08H448.14L444.78 148H430.46L450.78 91.84H466.62L486.94 148H472.46L469.1 138.08ZM465.58 127.52L458.62 106.96L451.74 127.52H465.58ZM545.844 91.84L525.924 148H508.804L488.884 91.84H503.444L517.364 134.24L531.364 91.84H545.844ZM585.962 114.24V125.6H550.762V114.24H585.962ZM632.928 138.08H611.968L608.608 148H594.288L614.608 91.84H630.448L650.768 148H636.288L632.928 138.08ZM629.408 127.52L622.448 106.96L615.568 127.52H629.408ZM709.672 91.84L689.752 148H672.632L652.712 91.84H667.272L681.192 134.24L695.192 91.84H709.672ZM729.07 91.84V148H715.39V91.84H729.07ZM765.543 148.56C760.263 148.56 755.41 147.333 750.983 144.88C746.61 142.427 743.117 139.013 740.503 134.64C737.943 130.213 736.663 125.253 736.663 119.76C736.663 114.267 737.943 109.333 740.503 104.96C743.117 100.587 746.61 97.1733 750.983 94.72C755.41 92.2667 760.263 91.04 765.543 91.04C770.823 91.04 775.65 92.2667 780.023 94.72C784.45 97.1733 787.917 100.587 790.423 104.96C792.983 109.333 794.263 114.267 794.263 119.76C794.263 125.253 792.983 130.213 790.423 134.64C787.863 139.013 784.397 142.427 780.023 144.88C775.65 147.333 770.823 148.56 765.543 148.56ZM765.543 136.08C770.023 136.08 773.597 134.587 776.263 131.6C778.983 128.613 780.343 124.667 780.343 119.76C780.343 114.8 778.983 110.853 776.263 107.92C773.597 104.933 770.023 103.44 765.543 103.44C761.01 103.44 757.383 104.907 754.663 107.84C751.997 110.773 750.663 114.747 750.663 119.76C750.663 124.72 751.997 128.693 754.663 131.68C757.383 134.613 761.01 136.08 765.543 136.08ZM852.114 148H838.434L815.554 113.36V148H801.874V91.84H815.554L838.434 126.64V91.84H852.114V148ZM875.71 91.84V148H862.03V91.84H875.71ZM883.304 119.84C883.304 114.293 884.504 109.36 886.904 105.04C889.304 100.667 892.637 97.28 896.904 94.88C901.224 92.4267 906.104 91.2 911.544 91.2C918.211 91.2 923.917 92.96 928.664 96.48C933.411 100 936.584 104.8 938.184 110.88H923.144C922.024 108.533 920.424 106.747 918.344 105.52C916.317 104.293 913.997 103.68 911.384 103.68C907.171 103.68 903.757 105.147 901.144 108.08C898.531 111.013 897.224 114.933 897.224 119.84C897.224 124.747 898.531 128.667 901.144 131.6C903.757 134.533 907.171 136 911.384 136C913.997 136 916.317 135.387 918.344 134.16C920.424 132.933 922.024 131.147 923.144 128.8H938.184C936.584 134.88 933.411 139.68 928.664 143.2C923.917 146.667 918.211 148.4 911.544 148.4C906.104 148.4 901.224 147.2 896.904 144.8C892.637 142.347 889.304 138.96 886.904 134.64C884.504 130.32 883.304 125.387 883.304 119.84ZM966.882 148.56C962.775 148.56 959.095 147.893 955.842 146.56C952.588 145.227 949.975 143.253 948.002 140.64C946.082 138.027 945.068 134.88 944.962 131.2H959.522C959.735 133.28 960.455 134.88 961.682 136C962.908 137.067 964.508 137.6 966.482 137.6C968.508 137.6 970.108 137.147 971.282 136.24C972.455 135.28 973.042 133.973 973.042 132.32C973.042 130.933 972.562 129.787 971.602 128.88C970.695 127.973 969.548 127.227 968.162 126.64C966.828 126.053 964.908 125.387 962.402 124.64C958.775 123.52 955.815 122.4 953.522 121.28C951.228 120.16 949.255 118.507 947.602 116.32C945.948 114.133 945.122 111.28 945.122 107.76C945.122 102.533 947.015 98.4533 950.802 95.52C954.588 92.5333 959.522 91.04 965.602 91.04C971.788 91.04 976.775 92.5333 980.562 95.52C984.348 98.4533 986.375 102.56 986.642 107.84H971.842C971.735 106.027 971.068 104.613 969.842 103.6C968.615 102.533 967.042 102 965.122 102C963.468 102 962.135 102.453 961.122 103.36C960.108 104.213 959.602 105.467 959.602 107.12C959.602 108.933 960.455 110.347 962.162 111.36C963.868 112.373 966.535 113.467 970.162 114.64C973.788 115.867 976.722 117.04 978.962 118.16C981.255 119.28 983.228 120.907 984.882 123.04C986.535 125.173 987.362 127.92 987.362 131.28C987.362 134.48 986.535 137.387 984.882 140C983.282 142.613 980.935 144.693 977.842 146.24C974.748 147.787 971.095 148.56 966.882 148.56Z" fill="#45A9DD"/>
<path d="M581.225 198.32H569.585L567.585 204H562.825L572.785 176.16H578.065L588.025 204H583.225L581.225 198.32ZM579.945 194.6L575.425 181.68L570.865 194.6H579.945ZM616.315 176.2L605.875 204H600.595L590.115 176.2H594.995L603.235 199.32L611.515 176.2H616.315ZM624.689 176.2V204H620.129V176.2H624.689ZM647.436 198.32H635.796L633.796 204H629.036L638.996 176.16H644.276L654.236 204H649.436L647.436 198.32ZM646.156 194.6L641.636 181.68L637.076 194.6H646.156ZM676.526 176.2V179.92H669.126V204H664.566V179.92H657.126V176.2H676.526ZM685.705 176.2V204H681.145V176.2H685.705ZM704.371 204.28C701.785 204.28 699.398 203.68 697.211 202.48C695.051 201.253 693.331 199.56 692.051 197.4C690.798 195.213 690.171 192.76 690.171 190.04C690.171 187.32 690.798 184.88 692.051 182.72C693.331 180.56 695.051 178.88 697.211 177.68C699.398 176.453 701.785 175.84 704.371 175.84C706.985 175.84 709.371 176.453 711.531 177.68C713.718 178.88 715.438 180.56 716.691 182.72C717.945 184.88 718.571 187.32 718.571 190.04C718.571 192.76 717.945 195.213 716.691 197.4C715.438 199.56 713.718 201.253 711.531 202.48C709.371 203.68 706.985 204.28 704.371 204.28ZM704.371 200.32C706.211 200.32 707.851 199.907 709.291 199.08C710.731 198.227 711.851 197.027 712.651 195.48C713.478 193.907 713.891 192.093 713.891 190.04C713.891 187.987 713.478 186.187 712.651 184.64C711.851 183.093 710.731 181.907 709.291 181.08C707.851 180.253 706.211 179.84 704.371 179.84C702.531 179.84 700.891 180.253 699.451 181.08C698.011 181.907 696.878 183.093 696.051 184.64C695.251 186.187 694.851 187.987 694.851 190.04C694.851 192.093 695.251 193.907 696.051 195.48C696.878 197.027 698.011 198.227 699.451 199.08C700.891 199.907 702.531 200.32 704.371 200.32ZM745.899 204H741.339L727.619 183.24V204H723.059V176.16H727.619L741.339 196.88V176.16H745.899V204ZM786.237 176.2L775.797 204H770.517L760.037 176.2H764.917L773.157 199.32L781.437 176.2H786.237ZM794.611 176.2V204H790.051V176.2H794.611ZM805.158 179.88V188.04H814.758V191.76H805.158V200.28H815.958V204H800.598V176.16H815.958V179.88H805.158ZM857.774 176.2L849.534 204H844.374L838.534 182.96L832.334 204L827.214 204.04L819.334 176.2H824.174L829.934 198.84L836.174 176.2H841.294L847.094 198.72L852.894 176.2H857.774Z" fill="black"/>
<g clip-path="url(#clip0_300_576)">
<path d="M242.491 -9.15527e-05C249.815 10.8392 256.437 22.1989 262.311 33.9999C276.262 60.9799 291.506 87.1199 305.851 113.84C309.601 120.88 309.695 121.56 301.951 121.98C280.51 123.203 259.735 130.35 241.666 142.72C238.028 145.14 236.209 144.1 234.334 140.2C224.827 120.44 215.152 100.82 205.438 81.18C204.013 78.32 203.376 73.9599 199.588 73.8799C195.8 73.7999 194.975 78.0999 193.55 80.9599C184.175 100.06 174.799 119.2 165.423 138.34C162.105 145.1 161.917 145.44 155.842 141.34C137.619 129.212 116.739 122.379 95.2753 121.52C89.6499 121.18 89.3311 120.56 92.3125 115.16C108.564 85.6799 124.815 56.2132 141.066 26.7599L155.898 -0.0800476L242.491 -9.15527e-05Z" fill="black"/>
<path d="M400 300C390.456 298.52 381.793 294 372.905 290.56C348.528 281.04 323.739 275.28 297.9 275.22C294.15 275.22 291.956 273.84 291.056 269.86C290.348 266.757 289.44 263.709 288.337 260.74C286.556 255.98 288.056 254.32 292.725 254.2C311.439 253.547 330.159 255.272 348.491 259.34C358.541 261.68 368.573 264.12 378.68 266.18C380.607 266.489 382.428 267.316 383.973 268.583C385.518 269.849 386.736 271.514 387.512 273.42C391.487 282 395.875 290.36 400.094 298.8L400 300Z" fill="black"/>
<path d="M32.7952 138.88C53.7215 140.06 73.5603 140.76 93.3428 142.88C122.426 145.84 147.421 159.52 171.629 175.52C178.961 180.38 186.274 185.24 193.38 190.46C197.899 193.76 201.781 193.54 206.244 190.32C221.959 179.05 238.233 168.695 254.997 159.3C272.379 149.5 291.018 144.82 310.35 142.68C331.239 140.38 352.24 140.12 373.185 139.16C374.496 139.07 375.812 139.07 377.123 139.16C378.248 139.28 379.392 139.7 379.429 141.16C379.429 142.32 378.586 142.92 377.667 143.16C375.167 144 372.666 144.78 370.166 145.5C344.777 152.52 319.538 159.82 294.543 168.56C269.548 177.3 250.103 193 233.583 213.82C224.207 225.82 215.244 238.1 205.7 249.82C200.374 256.38 199.474 256.1 193.68 249.82C184.155 239.56 176.598 227.56 168.179 216.34C147.946 189.44 122.07 172.58 91.1676 163.24C69.5475 156.72 47.8524 150.42 26.1573 144.16C23.9822 143.54 20.1382 143.62 20.532 140.58C20.9257 137.54 24.5072 138.92 26.7198 138.74C28.9325 138.56 31.4639 138.88 32.7952 138.88Z" fill="black"/>
<path d="M95.6691 231.94C72.5676 230.24 50.3287 236.2 27.8836 240.6C26.4585 240.88 24.7709 242.18 23.6458 240.88C22.1082 239.14 24.0209 237.56 24.7897 236.2C35.8529 216.5 47.0285 196.88 58.0917 177.18C58.6084 176.012 59.5366 175.109 60.6743 174.667C61.812 174.225 63.0673 174.28 64.1671 174.82C86.0873 181.5 106.826 190.82 125.502 205.04C128.109 207.04 128.952 209.04 127.771 212.06C125.615 217.6 123.402 223.1 121.283 228.66C120.158 231.64 117.908 231.98 115.339 231.94C108.776 231.9 102.232 231.94 95.6691 231.94Z" fill="black"/>
<path d="M372.605 241.1C361.354 238.9 350.103 236.74 338.853 234.46C321.208 230.86 303.375 231.62 285.599 232.1C280.78 232.24 277.855 230.9 276.355 225.78C275.005 221.22 273.055 216.86 271.273 212.44C270.036 209.38 270.767 207.4 273.392 205.4C292.143 191.2 312.77 181.76 334.765 175.08C335.87 174.548 337.127 174.502 338.264 174.951C339.401 175.4 340.326 176.309 340.84 177.48C352.091 197.32 363.529 217.06 374.873 236.86C375.549 238.04 376.505 239.4 375.68 240.72C374.855 242.04 373.748 241.42 372.605 241.1Z" fill="black"/>
<path d="M111.74 257.66C110.146 262.44 108.515 267.66 106.602 272.94C105.89 274.94 103.864 274.94 102.214 274.94C68.4622 274.18 37.354 285.54 6.39586 297.88C4.52074 298.62 2.02684 300.54 0.658005 299.04C-1.21711 297.04 1.333 294.7 2.25181 292.72C5.57077 285.56 9.15224 278.54 12.565 271.44C13.0598 270.261 13.8083 269.222 14.7499 268.409C15.6914 267.596 16.7995 267.031 17.9841 266.76C46.9921 259.46 75.9814 252.24 106.115 254.16C108.233 254.24 111.327 252.86 111.74 257.66Z" fill="black"/>
</g>
<defs>
<clipPath id="clip0_300_576">
<rect width="400" height="300" fill="white"/>
</clipPath>
</defs>
</svg>
