<svg width="24" height="24" viewBox="0 0 24 24" fill="none" xmlns="http://www.w3.org/2000/svg">
<g id="phone 1">
<path id="Vector" d="M12.7414 18.4034L15.3061 15.8387C15.6487 15.4961 16.1877 15.4484 16.5852 15.7256L20.1359 18.2021C20.6465 18.5582 20.7112 19.2892 20.271 19.7294L19.8847 20.1157C19.1745 20.8259 18.1553 21.1336 17.1992 20.8258C15.1342 20.1611 11.3773 18.6177 8.26236 15.5028C5.14739 12.3878 3.60401 8.63087 2.93932 6.56592C2.63154 5.60977 2.9392 4.59062 3.64946 3.88036L4.03573 3.4941C4.4759 3.05393 5.20695 3.11857 5.56305 3.62915L8.03949 7.17989C8.31671 7.57736 8.26905 8.11639 7.92639 8.45905L5.36174 11.0237" stroke="#45A9DD" stroke-width="2" stroke-linecap="round"/>
</g>
</svg>
