<svg width="40" height="40" viewBox="0 0 40 40" fill="none" xmlns="http://www.w3.org/2000/svg">
<path d="M21.2344 30.6727L25.5089 26.3981C26.0799 25.8271 26.9782 25.7476 27.6407 26.2096L33.5585 30.3371C34.4095 30.9306 34.5174 32.149 33.7837 32.8827L33.1399 33.5265C31.9562 34.7102 30.2575 35.223 28.664 34.71C25.2224 33.6022 18.9609 31.0298 13.7693 25.8383C8.57768 20.6466 6.00538 14.3851 4.89756 10.9435C4.38459 9.34997 4.89736 7.65138 6.08113 6.46762L6.72491 5.82385C7.45853 5.09023 8.67694 5.19797 9.27044 6.04893L13.3978 11.9668C13.8599 12.6293 13.7804 13.5277 13.2093 14.0988L8.93493 18.3731" stroke="black" stroke-width="2" stroke-linecap="round"/>
</svg>
