<svg width="148" height="24" viewBox="0 0 148 24" fill="none" xmlns="http://www.w3.org/2000/svg">
<path d="M23.9316 3.82074L20.3099 20.7927C20.0366 21.9905 19.3241 22.2887 18.3115 21.7244L12.7931 17.6837L10.1304 20.2284C9.83572 20.5212 9.58926 20.7661 9.02136 20.7661L9.41782 15.1815L19.6455 5.99813C20.0902 5.60418 19.5491 5.38591 18.9544 5.77986L6.3104 13.6909L0.86706 11.998C-0.316974 11.6306 -0.338405 10.8214 1.11351 10.2571L22.4047 2.10651C23.3905 1.73917 24.2531 2.32478 23.9316 3.82074Z" fill="white"/>
<path d="M71.9421 20.809C71.5819 20.847 71.2762 20.8849 70.9705 20.9174C69.3821 21.0745 67.9956 20.6465 66.9476 19.4167C66.6201 19.0321 66.4345 18.5336 66.1561 18.1056C65.7249 17.4339 65.2828 16.7675 64.8079 16.1228C64.6441 15.9007 64.3603 15.7707 64.1419 15.581C64.071 15.5214 64.0491 15.4077 64 15.3156C64.0983 15.2777 64.191 15.2126 64.2893 15.2018C65.5448 15.088 66.429 15.6623 67.0459 16.6971C67.8155 17.9865 68.929 18.6907 70.441 18.6907C70.8777 18.6907 71.3144 18.5445 71.7456 18.447C71.8275 18.4253 71.9258 18.3007 71.9367 18.2086C72.0131 17.6451 72.0841 17.0817 72.3461 16.567C72.4443 16.3774 72.559 16.1986 72.6736 16.0036C72.2314 15.9169 71.8057 15.8519 71.3854 15.749C69.4476 15.2614 67.8483 14.2971 66.9203 12.4659C66.56 11.7508 66.3581 10.9815 66.3308 10.1797C66.2871 8.94447 66.3035 7.70384 66.5546 6.48488C66.7347 5.62889 67.0622 4.83251 67.7172 4.2149C67.8592 4.07946 67.8865 3.96027 67.81 3.7544C67.4443 2.74131 67.4061 1.71196 67.7172 0.677201C67.7828 0.455079 67.8428 0.232957 67.9083 0C69.4039 0.281716 70.2937 1.28397 71.1288 2.39458C71.9913 1.76072 73.012 1.70655 74.0055 1.64153C75.1845 1.56569 76.369 1.58194 77.5426 1.77156C78.1539 1.86907 78.5306 1.99368 79.1255 2.34582C79.6386 1.82032 80.119 1.28939 80.6485 0.807224C81.0688 0.422573 81.5928 0.178781 82.1605 0.0487583C82.3188 0.0108351 82.4007 0.0270879 82.4662 0.200451C82.9083 1.39774 82.9738 2.58962 82.488 3.78691C82.4225 3.94944 82.4279 4.06321 82.5644 4.19323C83.3504 4.93544 83.7107 5.89436 83.8308 6.92912C83.94 7.88804 84 8.85237 84 9.8167C84 11.1874 83.5906 12.4442 82.7227 13.5223C82.1114 14.2862 81.3199 14.8334 80.4247 15.2451C79.5568 15.6406 78.6507 15.8682 77.7118 15.9874C77.69 15.9928 77.6681 16.009 77.6299 16.0253C78.274 16.9409 78.3777 17.9702 78.3668 19.0375C78.3504 20.5923 78.3559 22.1418 78.3668 23.6966C78.3668 23.9404 78.2958 24 78.0557 24C76.1179 23.9892 74.1801 23.9892 72.2424 24C72.0022 24 71.9258 23.9242 71.9258 23.6912C71.9367 22.8515 71.9312 22.0117 71.9312 21.172C71.9421 21.0474 71.9421 20.9391 71.9421 20.809Z" fill="white"/>
<path d="M143.362 0H128.638C126.081 0 124 2.08024 124 4.63782V9.53707V19.3622C124 21.9198 126.081 24 128.638 24H143.363C145.92 24 148 21.9198 148 19.3622V9.53658V4.63734C148 2.07976 145.92 0 143.362 0ZM144.693 2.76575L145.223 2.76381V3.29198V6.83183L141.169 6.8449L141.155 2.77737L144.693 2.76575ZM132.575 9.53658C133.343 8.47298 134.591 7.77537 136 7.77537C137.41 7.77537 138.657 8.47298 139.425 9.53658C139.925 10.2308 140.225 11.0799 140.225 11.9998C140.225 14.3288 138.328 16.2237 136 16.2237C133.67 16.2237 131.775 14.3288 131.775 11.9998C131.776 11.0799 132.075 10.2308 132.575 9.53658ZM145.662 19.3617C145.662 20.6306 144.63 21.6612 143.362 21.6612H128.638C127.37 21.6612 126.338 20.6306 126.338 19.3617V9.53658H129.921C129.611 10.2976 129.438 11.1288 129.438 11.9998C129.438 15.6176 132.381 18.5629 136 18.5629C139.619 18.5629 142.562 15.6176 142.562 11.9998C142.562 11.1288 142.388 10.2976 142.078 9.53658H145.662V19.3617Z" fill="white"/>
</svg>
