<svg width="64" height="48" viewBox="0 0 64 48" fill="none" xmlns="http://www.w3.org/2000/svg">
<g id="logo1 1" clip-path="url(#clip0_467_7750)">
<path id="Vector" d="M38.7977 -1.48779e-05C39.9695 1.73427 41.029 3.55182 41.9689 5.43998C44.201 9.75678 46.6401 13.9392 48.9353 18.2144C49.5353 19.3408 49.5503 19.4496 48.3113 19.5168C44.8807 19.7124 41.5568 20.856 38.6656 22.8352C38.0836 23.2224 37.7926 23.056 37.4926 22.432C35.9715 19.2704 34.4234 16.1312 32.8693 12.9888C32.6413 12.5312 32.5393 11.8336 31.9332 11.8208C31.3272 11.808 31.1952 12.496 30.9672 12.9536C29.4671 16.0096 27.967 19.072 26.4669 22.1344C25.9359 23.216 25.9058 23.2704 24.9338 22.6144C22.0182 20.674 18.6774 19.5807 15.2432 19.4432C14.3431 19.3888 14.2921 19.2896 14.7691 18.4256C17.3693 13.7088 19.9695 8.99412 22.5696 4.28159L24.9428 -0.0128078L38.7977 -1.48779e-05Z" fill="black"/>
<path id="Vector_2" d="M64.0001 48C62.473 47.7632 61.0869 47.04 59.6648 46.4896C55.7646 44.9664 51.7983 44.0448 47.6641 44.0352C47.064 44.0352 46.713 43.8144 46.569 43.1776C46.4558 42.681 46.3105 42.1935 46.134 41.7184C45.849 40.9568 46.089 40.6912 46.836 40.672C49.8303 40.5675 52.8255 40.8436 55.7586 41.4944C57.3667 41.8688 58.9718 42.2592 60.5889 42.5888C60.8972 42.6383 61.1886 42.7706 61.4358 42.9732C61.683 43.1759 61.8778 43.4422 62.002 43.7472C62.638 45.12 63.3401 46.4576 64.0151 47.808L64.0001 48Z" fill="black"/>
<path id="Vector_3" d="M5.24786 22.2208C8.59607 22.4096 11.7703 22.5216 14.9355 22.8608C19.5888 23.3344 23.588 25.5232 27.4613 28.0832C28.6343 28.8608 29.8044 29.6384 30.9415 30.4736C31.6645 31.0016 32.2856 30.9664 32.9996 30.4512C35.514 28.6481 38.118 26.9912 40.8001 25.488C43.5813 23.92 46.5634 23.1712 49.6566 22.8288C52.9989 22.4608 56.359 22.4192 59.7103 22.2656C59.9201 22.2512 60.1305 22.2512 60.3403 22.2656C60.5203 22.2848 60.7033 22.352 60.7093 22.5856C60.7093 22.7712 60.5743 22.8672 60.4273 22.9056C60.0273 23.04 59.6273 23.1648 59.2272 23.28C55.165 24.4032 51.1267 25.5712 47.1275 26.9696C43.1282 28.368 40.017 30.88 37.3739 34.2112C35.8738 36.1312 34.4397 38.096 32.9126 39.9712C32.0605 41.0208 31.9165 40.976 30.9895 39.9712C29.4654 38.3296 28.2563 36.4096 26.9092 34.6144C23.672 30.3104 19.5318 27.6128 14.5874 26.1184C11.1282 25.0752 7.65701 24.0672 4.1858 23.0656C3.83777 22.9664 3.22274 22.9792 3.28574 22.4928C3.34874 22.0064 3.92178 22.2272 4.2758 22.1984C4.62982 22.1696 5.03484 22.2208 5.24786 22.2208Z" fill="black"/>
<path id="Vector_4" d="M15.3062 37.1104C11.61 36.8384 8.05174 37.792 4.46051 38.496C4.2325 38.5408 3.96248 38.7488 3.78247 38.5408C3.53645 38.2624 3.84248 38.0096 3.96549 37.792C5.7356 34.64 7.5237 31.5008 9.29381 28.3488C9.37649 28.1619 9.525 28.0174 9.70703 27.9467C9.88906 27.876 10.0899 27.8848 10.2659 27.9712C13.7731 29.04 17.0913 30.5312 20.0795 32.8064C20.4965 33.1264 20.6315 33.4464 20.4425 33.9296C20.0975 34.816 19.7435 35.696 19.4044 36.5856C19.2244 37.0624 18.8644 37.1168 18.4534 37.1104C17.4033 37.104 16.3563 37.1104 15.3062 37.1104Z" fill="black"/>
<path id="Vector_5" d="M59.6173 38.576C57.8172 38.224 56.0171 37.8784 54.217 37.5136C51.3938 36.9376 48.5406 37.0592 45.6964 37.136C44.9254 37.1584 44.4573 36.944 44.2173 36.1248C44.0013 35.3952 43.6893 34.6976 43.4043 33.9904C43.2063 33.5008 43.3233 33.184 43.7433 32.864C46.7435 30.592 50.0437 29.0816 53.5629 28.0128C53.7397 27.9277 53.9409 27.9203 54.1228 27.9921C54.3047 28.064 54.4528 28.2094 54.535 28.3968C56.3351 31.5712 58.1652 34.7296 59.9803 37.8976C60.0883 38.0864 60.2413 38.304 60.1093 38.5152C59.9773 38.7264 59.8003 38.6272 59.6173 38.576Z" fill="black"/>
<path id="Vector_6" d="M17.8786 41.2256C17.6236 41.9904 17.3626 42.8256 17.0566 43.6704C16.9426 43.9904 16.6185 43.9904 16.3545 43.9904C10.9542 43.8688 5.97688 45.6864 1.02357 47.6608C0.723553 47.7792 0.324529 48.0864 0.105515 47.8464C-0.194504 47.5264 0.213515 47.152 0.360524 46.8352C0.891557 45.6896 1.46459 44.5664 2.01063 43.4304C2.0898 43.2417 2.20957 43.0755 2.36021 42.9454C2.51086 42.8153 2.68815 42.7249 2.87768 42.6816C7.51897 41.5136 12.1573 40.3584 16.9786 40.6656C17.3176 40.6784 17.8126 40.4576 17.8786 41.2256Z" fill="black"/>
</g>
<defs>
<clipPath id="clip0_467_7750">
<rect width="64" height="48" fill="white"/>
</clipPath>
</defs>
</svg>
