<svg width="380" height="60" viewBox="0 0 380 60" fill="none" xmlns="http://www.w3.org/2000/svg">
<path d="M124.213 38.32H112.573L110.573 44H105.813L115.773 16.16H121.053L131.013 44H126.213L124.213 38.32ZM122.933 34.6L118.413 21.68L113.853 34.6H122.933ZM159.304 16.2L148.864 44H143.584L133.104 16.2H137.984L146.224 39.32L154.504 16.2H159.304ZM180.037 27.6V31.44H163.597V27.6H180.037ZM203.276 38.32H191.636L189.636 44H184.876L194.836 16.16H200.116L210.076 44H205.276L203.276 38.32ZM201.996 34.6L197.476 21.68L192.916 34.6H201.996ZM238.366 16.2L227.926 44H222.646L212.166 16.2H217.046L225.286 39.32L233.566 16.2H238.366ZM246.74 16.2V44H242.18V16.2H246.74ZM265.407 44.28C262.82 44.28 260.433 43.68 258.247 42.48C256.087 41.2533 254.367 39.56 253.087 37.4C251.833 35.2133 251.207 32.76 251.207 30.04C251.207 27.32 251.833 24.88 253.087 22.72C254.367 20.56 256.087 18.88 258.247 17.68C260.433 16.4533 262.82 15.84 265.407 15.84C268.02 15.84 270.407 16.4533 272.567 17.68C274.753 18.88 276.473 20.56 277.727 22.72C278.98 24.88 279.607 27.32 279.607 30.04C279.607 32.76 278.98 35.2133 277.727 37.4C276.473 39.56 274.753 41.2533 272.567 42.48C270.407 43.68 268.02 44.28 265.407 44.28ZM265.407 40.32C267.247 40.32 268.887 39.9067 270.327 39.08C271.767 38.2267 272.887 37.0267 273.687 35.48C274.513 33.9067 274.927 32.0933 274.927 30.04C274.927 27.9867 274.513 26.1867 273.687 24.64C272.887 23.0933 271.767 21.9067 270.327 21.08C268.887 20.2533 267.247 19.84 265.407 19.84C263.567 19.84 261.927 20.2533 260.487 21.08C259.047 21.9067 257.913 23.0933 257.087 24.64C256.287 26.1867 255.887 27.9867 255.887 30.04C255.887 32.0933 256.287 33.9067 257.087 35.48C257.913 37.0267 259.047 38.2267 260.487 39.08C261.927 39.9067 263.567 40.32 265.407 40.32ZM306.934 44H302.374L288.654 23.24V44H284.094V16.16H288.654L302.374 36.88V16.16H306.934V44ZM317.482 16.2V44H312.922V16.2H317.482ZM321.949 30.04C321.949 27.32 322.575 24.88 323.829 22.72C325.109 20.56 326.829 18.88 328.989 17.68C331.175 16.4533 333.562 15.84 336.149 15.84C339.109 15.84 341.735 16.5733 344.029 18.04C346.349 19.48 348.029 21.5333 349.069 24.2H343.589C342.869 22.7333 341.869 21.64 340.589 20.92C339.309 20.2 337.829 19.84 336.149 19.84C334.309 19.84 332.669 20.2533 331.229 21.08C329.789 21.9067 328.655 23.0933 327.829 24.64C327.029 26.1867 326.629 27.9867 326.629 30.04C326.629 32.0933 327.029 33.8933 327.829 35.44C328.655 36.9867 329.789 38.1867 331.229 39.04C332.669 39.8667 334.309 40.28 336.149 40.28C337.829 40.28 339.309 39.92 340.589 39.2C341.869 38.48 342.869 37.3867 343.589 35.92H349.069C348.029 38.5867 346.349 40.64 344.029 42.08C341.735 43.52 339.109 44.24 336.149 44.24C333.535 44.24 331.149 43.64 328.989 42.44C326.829 41.2133 325.109 39.52 323.829 37.36C322.575 35.2 321.949 32.76 321.949 30.04ZM363.566 44.28C361.7 44.28 360.02 43.96 358.526 43.32C357.033 42.6533 355.86 41.72 355.006 40.52C354.153 39.32 353.726 37.92 353.726 36.32H358.606C358.713 37.52 359.18 38.5067 360.006 39.28C360.86 40.0533 362.046 40.44 363.566 40.44C365.14 40.44 366.366 40.0667 367.246 39.32C368.126 38.5467 368.566 37.56 368.566 36.36C368.566 35.4267 368.286 34.6667 367.726 34.08C367.193 33.4933 366.513 33.04 365.686 32.72C364.886 32.4 363.766 32.0533 362.326 31.68C360.513 31.2 359.033 30.72 357.886 30.24C356.766 29.7333 355.806 28.96 355.006 27.92C354.206 26.88 353.806 25.4933 353.806 23.76C353.806 22.16 354.206 20.76 355.006 19.56C355.806 18.36 356.926 17.44 358.366 16.8C359.806 16.16 361.473 15.84 363.366 15.84C366.06 15.84 368.26 16.52 369.966 17.88C371.7 19.2133 372.66 21.0533 372.846 23.4H367.806C367.726 22.3867 367.246 21.52 366.366 20.8C365.486 20.08 364.326 19.72 362.886 19.72C361.58 19.72 360.513 20.0533 359.686 20.72C358.86 21.3867 358.446 22.3467 358.446 23.6C358.446 24.4533 358.7 25.16 359.206 25.72C359.74 26.2533 360.406 26.68 361.206 27C362.006 27.32 363.1 27.6667 364.486 28.04C366.326 28.5467 367.82 29.0533 368.966 29.56C370.14 30.0667 371.126 30.8533 371.926 31.92C372.753 32.96 373.166 34.36 373.166 36.12C373.166 37.5333 372.78 38.8667 372.006 40.12C371.26 41.3733 370.153 42.3867 368.686 43.16C367.246 43.9067 365.54 44.28 363.566 44.28Z" fill="black"/>
<g clip-path="url(#clip0_300_619)">
<path d="M48.4985 -5.72391e-06C49.9634 2.16785 51.2878 4.43979 52.4625 6.79999C55.2527 12.196 58.3016 17.424 61.1706 22.768C61.9206 24.176 61.9394 24.312 60.3905 24.396C56.1024 24.6405 51.9475 26.07 48.3335 28.544C47.606 29.028 47.2422 28.82 46.8672 28.04C44.9658 24.088 43.0307 20.164 41.0881 16.236C40.8031 15.664 40.6755 14.792 39.918 14.776C39.1604 14.76 38.9955 15.62 38.7104 16.192C36.8353 20.012 34.9602 23.84 33.0851 27.668C32.4213 29.02 32.3838 29.088 31.1687 28.268C27.5242 25.8425 23.3482 24.4759 19.0554 24.304C17.9304 24.236 17.8666 24.112 18.4629 23.032C21.7131 17.136 24.9633 11.2427 28.2135 5.352L31.18 -0.0159969L48.4985 -5.72391e-06Z" fill="black"/>
<path d="M79.9996 60C78.0908 59.704 76.3582 58.8 74.5806 58.112C69.7053 56.208 64.7474 55.056 59.5796 55.044C58.8296 55.044 58.3908 54.768 58.2108 53.972C58.0693 53.3513 57.8876 52.7418 57.667 52.148C57.3107 51.196 57.6107 50.864 58.5445 50.84C62.2873 50.7094 66.0314 51.0544 69.6978 51.868C71.7079 52.336 73.7142 52.824 75.7356 53.236C76.121 53.2979 76.4852 53.4633 76.7942 53.7165C77.1032 53.9698 77.3467 54.3027 77.502 54.684C78.297 56.4 79.1746 58.072 80.0184 59.76L79.9996 60Z" fill="black"/>
<path d="M6.55982 27.776C10.7451 28.012 14.7128 28.152 18.6693 28.576C24.486 29.168 29.485 31.904 34.3266 35.104C35.7929 36.076 37.2555 37.048 38.6768 38.092C39.5806 38.752 40.3569 38.708 41.2495 38.064C44.3925 35.8101 47.6474 33.7391 51.0001 31.86C54.4766 29.9 58.2043 28.964 62.0708 28.536C66.2486 28.076 70.4488 28.024 74.6378 27.832C74.9001 27.814 75.1632 27.814 75.4254 27.832C75.6504 27.856 75.8792 27.94 75.8867 28.232C75.8867 28.464 75.7179 28.584 75.5341 28.632C75.0341 28.8 74.5341 28.956 74.034 29.1C68.9562 30.504 63.9084 31.964 58.9094 33.712C53.9103 35.46 50.0213 38.6 46.7173 42.764C44.8422 45.164 43.0496 47.62 41.1407 49.964C40.0757 51.276 39.8957 51.22 38.7368 49.964C36.8317 47.912 35.3204 45.512 33.6365 43.268C29.59 37.888 24.4147 34.516 18.2343 32.648C13.9103 31.344 9.57127 30.084 5.23225 28.832C4.79722 28.708 4.02842 28.724 4.10718 28.116C4.18593 27.508 4.90222 27.784 5.34475 27.748C5.78728 27.712 6.29355 27.776 6.55982 27.776Z" fill="black"/>
<path d="M19.1342 46.388C14.5139 46.048 10.0661 47.24 5.5771 48.12C5.29209 48.176 4.95456 48.436 4.72955 48.176C4.42203 47.828 4.80457 47.512 4.95833 47.24C7.17097 43.3 9.40609 39.376 11.6187 35.436C11.7221 35.2024 11.9077 35.0218 12.1353 34.9334C12.3628 34.845 12.6138 34.856 12.8338 34.964C17.2178 36.3 21.3656 38.164 25.1008 41.008C25.6221 41.408 25.7909 41.808 25.5546 42.412C25.1233 43.52 24.6808 44.62 24.257 45.732C24.032 46.328 23.582 46.396 23.0682 46.388C21.7556 46.38 20.4468 46.388 19.1342 46.388Z" fill="black"/>
<path d="M74.5202 48.22C72.27 47.78 70.0199 47.348 67.7697 46.892C64.2408 46.172 60.6743 46.324 57.1191 46.42C56.1552 46.448 55.5702 46.18 55.2702 45.156C55.0002 44.244 54.6101 43.372 54.2539 42.488C54.0064 41.876 54.1526 41.48 54.6777 41.08C58.4279 38.24 62.5531 36.352 66.9522 35.016C67.1732 34.9096 67.4246 34.9003 67.652 34.9902C67.8794 35.08 68.0645 35.2617 68.1672 35.496C70.4174 39.464 72.705 43.412 74.9739 47.372C75.1089 47.608 75.3002 47.88 75.1352 48.144C74.9702 48.408 74.7489 48.284 74.5202 48.22Z" fill="black"/>
<path d="M22.3488 51.532C22.03 52.488 21.7037 53.532 21.3212 54.588C21.1787 54.988 20.7737 54.988 20.4436 54.988C13.6932 54.836 7.47159 57.108 1.27995 59.576C0.904929 59.724 0.406149 60.108 0.132382 59.808C-0.242641 59.408 0.267381 58.94 0.451143 58.544C1.11493 57.112 1.83123 55.708 2.51377 54.288C2.61274 54.0521 2.76245 53.8444 2.95076 53.6818C3.13907 53.5191 3.36068 53.4062 3.59759 53.352C9.39921 51.892 15.1971 50.448 21.2237 50.832C21.6475 50.848 22.2663 50.572 22.3488 51.532Z" fill="black"/>
</g>
<defs>
<clipPath id="clip0_300_619">
<rect width="80" height="60" fill="white"/>
</clipPath>
</defs>
</svg>
