<svg width="80" height="80" viewBox="0 0 80 80" fill="none" xmlns="http://www.w3.org/2000/svg">
<path d="M16.0368 46.84V42.424L26.1488 27.96H32.2608V42.104H34.8848V46.84H32.2608V51H26.7888V46.84H16.0368ZM27.1728 33.976L21.7968 42.104H27.1728V33.976ZM40.669 51.256C39.709 51.256 38.9197 50.9787 38.301 50.424C37.7037 49.848 37.405 49.144 37.405 48.312C37.405 47.4587 37.7037 46.744 38.301 46.168C38.9197 45.592 39.709 45.304 40.669 45.304C41.6077 45.304 42.3757 45.592 42.973 46.168C43.5917 46.744 43.901 47.4587 43.901 48.312C43.901 49.144 43.5917 49.848 42.973 50.424C42.3757 50.9787 41.6077 51.256 40.669 51.256ZM58.1483 33.944C57.9776 33.1547 57.6789 32.568 57.2523 32.184C56.8256 31.7787 56.2176 31.576 55.4283 31.576C54.2123 31.576 53.3376 32.1093 52.8043 33.176C52.2709 34.2213 51.9936 35.8853 51.9723 38.168C52.4416 37.4213 53.1136 36.8347 53.9883 36.408C54.8843 35.9813 55.8656 35.768 56.9323 35.768C59.0229 35.768 60.6976 36.4293 61.9563 37.752C63.2363 39.0747 63.8763 40.92 63.8763 43.288C63.8763 44.8453 63.5563 46.2107 62.9163 47.384C62.2976 48.5573 61.3803 49.4747 60.1643 50.136C58.9696 50.7973 57.5509 51.128 55.9083 51.128C52.6229 51.128 50.3403 50.104 49.0603 48.056C47.7803 45.9867 47.1403 43.0213 47.1403 39.16C47.1403 35.1067 47.8123 32.0987 49.1562 30.136C50.5216 28.152 52.6976 27.16 55.6843 27.16C57.2843 27.16 58.6283 27.48 59.7163 28.12C60.8256 28.7387 61.6576 29.56 62.2123 30.584C62.7883 31.608 63.1296 32.728 63.2362 33.944H58.1483ZM55.6203 40.088C54.7029 40.088 53.9349 40.3653 53.3163 40.92C52.7189 41.4533 52.4203 42.2213 52.4203 43.224C52.4203 44.248 52.6976 45.048 53.2523 45.624C53.8283 46.2 54.6389 46.488 55.6843 46.488C56.6229 46.488 57.3589 46.2107 57.8923 45.656C58.4469 45.08 58.7243 44.3013 58.7243 43.32C58.7243 42.3173 58.4576 41.528 57.9243 40.952C57.3909 40.376 56.6229 40.088 55.6203 40.088Z" fill="#45A9DD"/>
<path d="M40 0C49.5241 1.13574e-07 58.7357 3.39834 65.9779 9.58376C73.2201 15.7692 78.0176 24.3358 79.5075 33.7426C80.9974 43.1495 79.0819 52.7793 74.1056 60.8999C69.1293 69.0206 61.4187 75.0992 52.3607 78.0423C43.3027 80.9854 33.4918 80.5999 24.6927 76.9552C15.8935 73.3104 8.68359 66.6457 4.35973 58.1596C0.0358735 49.6735 -1.11816 39.9231 1.10521 30.6622C3.32857 21.4012 8.78342 13.2374 16.4886 7.63931L18.8397 10.8754C11.9051 15.9137 6.99572 23.2611 4.99469 31.596C2.99366 39.9308 4.03229 48.7062 7.92376 56.3436C11.8152 63.9811 18.3042 69.9794 26.2234 73.2597C34.1426 76.5399 42.9724 76.8868 51.1246 74.238C59.2768 71.5892 66.2163 66.1185 70.695 58.81C75.1738 51.5014 76.8977 42.8345 75.5568 34.3684C74.2159 25.9022 69.8981 18.1923 63.3801 12.6254C56.8621 7.0585 48.5717 4 40 4V0Z" fill="#45A9DD"/>
</svg>
