<svg width="80" height="80" viewBox="0 0 80 80" fill="none" xmlns="http://www.w3.org/2000/svg">
<path d="M15.7868 46.84V42.424L25.8988 27.96H32.0108V42.104H34.6348V46.84H32.0108V51H26.5388V46.84H15.7868ZM26.9228 33.976L21.5468 42.104H26.9228V33.976ZM40.419 51.256C39.459 51.256 38.6697 50.9787 38.051 50.424C37.4537 49.848 37.155 49.144 37.155 48.312C37.155 47.4587 37.4537 46.744 38.051 46.168C38.6697 45.592 39.459 45.304 40.419 45.304C41.3577 45.304 42.1257 45.592 42.723 46.168C43.3417 46.744 43.651 47.4587 43.651 48.312C43.651 49.144 43.3417 49.848 42.723 50.424C42.1257 50.9787 41.3577 51.256 40.419 51.256ZM46.3463 39C46.3463 35.3307 47.0503 32.44 48.4583 30.328C49.8876 28.216 52.1809 27.16 55.3383 27.16C58.4956 27.16 60.7783 28.216 62.1863 30.328C63.6156 32.44 64.3303 35.3307 64.3303 39C64.3303 42.712 63.6156 45.624 62.1863 47.736C60.7783 49.848 58.4956 50.904 55.3383 50.904C52.1809 50.904 49.8876 49.848 48.4583 47.736C47.0503 45.624 46.3463 42.712 46.3463 39ZM58.9543 39C58.9543 36.8453 58.7196 35.192 58.2503 34.04C57.7809 32.8667 56.8103 32.28 55.3383 32.28C53.8663 32.28 52.8956 32.8667 52.4263 34.04C51.9569 35.192 51.7223 36.8453 51.7223 39C51.7223 40.4507 51.8076 41.656 51.9783 42.616C52.1489 43.5547 52.4903 44.3227 53.0023 44.92C53.5356 45.496 54.3143 45.784 55.3383 45.784C56.3623 45.784 57.1303 45.496 57.6423 44.92C58.1756 44.3227 58.5276 43.5547 58.6983 42.616C58.8689 41.656 58.9543 40.4507 58.9543 39Z" fill="#45A9DD"/>
<path d="M40 0C48.4472 1.00731e-07 56.6775 2.6742 63.5114 7.63932C70.3453 12.6044 75.4319 19.6056 78.0423 27.6393C80.6526 35.6731 80.6526 44.3269 78.0423 52.3607C75.4319 60.3944 70.3453 67.3956 63.5114 72.3607C56.6775 77.3258 48.4472 80 40 80C31.5528 80 23.3225 77.3258 16.4886 72.3607C9.65468 67.3956 4.56806 60.3944 1.95774 52.3607C-0.65258 44.3269 -0.652579 35.673 1.95774 27.6393L5.76197 28.8754C3.41268 36.1057 3.41268 43.8942 5.76196 51.1246C8.11125 58.355 12.6892 64.656 18.8397 69.1246C24.9902 73.5932 32.3975 76 40 76C47.6025 76 55.0098 73.5932 61.1603 69.1246C67.3108 64.656 71.8887 58.355 74.238 51.1246C76.5873 43.8943 76.5873 36.1058 74.238 28.8754C71.8887 21.645 67.3108 15.344 61.1603 10.8754C55.0098 6.40678 47.6025 4 40 4V0Z" fill="#45A9DD"/>
</svg>
