<svg width="80" height="80" viewBox="0 0 80 80" fill="none" xmlns="http://www.w3.org/2000/svg">
<g id="9027502_tool_icon 1">
<path id="Vector" d="M32.4758 45.8097C30.6372 46.367 28.6866 46.6666 26.666 46.6666C15.6203 46.6666 6.66602 37.7123 6.66602 26.6666C6.66602 23.579 7.3657 20.6548 8.61516 18.0439L23.1652 32.5939L32.5933 23.1658L18.0432 8.61577C20.6541 7.36631 23.5784 6.66663 26.666 6.66663C37.7117 6.66663 46.666 15.6209 46.666 26.6666C46.666 29.6013 46.0339 32.3884 44.8985 34.8991L68.6189 58.6195C71.2224 61.223 71.2224 65.4441 68.6189 68.0476L66.3803 70.2862C63.7768 72.8897 59.5557 72.8897 56.9522 70.2862L32.4758 45.8097Z" stroke="white" stroke-width="4" stroke-linecap="square"/>
</g>
</svg>
